# ProBuilder 4.0.5
# https://unity3d.com/unity/features/worldbuilding/probuilder
# 12/06/2020 3:15:21

mtllib ./WalkZone.mtl
o WalkZone

g WalkZone
v 0.5 -0.5 0.5
v -419.0075 -0.5 0.5000917
v 0.5 0.5 0.5
v -419.0075 0.5 0.5000917
v -419.0075 -0.5 -278.7879
v -419.0075 0.5 -278.7879
v 0.5 -0.5 -278.7878
v 0.5 0.5 -278.7878

vt 0.4999999 -0.5
vt -419.0075 -0.5
vt 0.4999999 0.5
vt -419.0075 0.5
vt 0.5000917 -0.5
vt -278.7879 -0.5
vt 0.5000917 0.5
vt -278.7879 0.5
vt 419.0076 -0.5
vt -0.4998986 -0.5
vt 419.0076 0.5
vt -0.4998986 0.5
vt 278.7878 -0.5
vt -0.5 -0.5
vt 278.7878 0.5
vt -0.5 0.5
vt -0.5 -278.7878
vt 419.0075 -278.7879
vt 0.5 -278.7878
vt -419.0075 -278.7879

vn 2.186648E-07 0 1
vn -1 0 0
vn 3.63731E-07 0 -1
vn 1 0 0
vn 0 1 0
vn 0 -1 0

g WalkZone
usemtl Street_texture
f 3/3/1 4/4/1 2/2/1 1/1/1
f 4/7/2 6/8/2 5/6/2 2/5/2
f 6/11/3 8/12/3 7/10/3 5/9/3
f 8/15/4 3/16/4 1/14/4 7/13/4
f 8/17/5 6/18/5 4/11/5 3/16/5
f 1/7/6 2/4/6 5/20/6 7/19/6

